.
..............................Site Info...........................

 -   http://www.scenetime.com  *_*   

Scenetime .Always on time . friendly online private torrent community ..

     We care to share . Join us on  http://www.scenetime.com 

    Be the first to get new release at  http://www.scenetime.com

        Seed back for speed


...................................NFO:.................................................[img]http://i.imgur.com/LZl3b.jpg[/img]

[b]Extremely.Loud.and.Incredibly.Close.2011.BRRip.XViD.AC3-5.1-ADTRG[/b]

A nine-year-old amateur inventor, Francophile, and pacifist searches New York City for the lock that matches a mysterious key left behind by his father, who died in the World Trade Center on September 11, 2001. 

[url]http://www.imdb.com/title/tt0477302/[/url]

Source -   Extremely Loud and Incredibly Close 2011 1080p BluRay X264-AMIABLE  Thanks

Complete name                            : Extremely.Loud.and.Incredibly.Close.2011.BRRip.XViD.AC3-5.1-ADTRG.avi
Format                                   : AVI
File size                                : 1.89 GiB
Duration                                 : 2h 9mn
Overall bit rate                         : 2 090 Kbps

Video
ID                                       : 0
Format                                   : MPEG-4 Visual
Codec ID                                 : XVID
Duration                                 : 2h 9mn
Bit rate                                 : 1 697 Kbps
Width                                    : 720 pixels
Height                                   : 304 pixels
Display aspect ratio                     : 2.35:1
Frame rate                               : 23.976 fps
Stream size                              : 1.53 GiB (81%)

Audio
ID                                       : 1
Format                                   : AC-3
Duration                                 : 2h 9mn
Bit rate                                 : 384 Kbps
Channel(s)                               : 6 channels
Channel positions                        : Front: L C R, Side: L R, LFE
Stream size                              : 356 MiB (18%)


Encoder - LiMeY
Good things come in small packages, So feel the wrath of my compression

[img]http://i.imgur.com/PALUQ.png[/img]
[img]http://i.imgur.com/K1AT7.png[/img]
[img]http://i.imgur.com/Fc9le.png[/img]
[img]http://i.imgur.com/6zVVl.png[/img]
[img]http://i.imgur.com/AZwZk.png[/img]
[img]http://i.imgur.com/uEdqt.png[/img]
[img]http://i.imgur.com/oUq2h.png[/img]
[img]http://i.imgur.com/4VyFC.png[/img]


Small size and great Quality from the group you can trust :)


Greetz to DragonMaster,cOOkies,Mr Geek,InFecTeD,Cush,NoWoRRiEs Rayne, Mr & Mrs IrNbRu and the rest of the crew

Respect to CM8,Goon,Hope,mSD,InfernO and maybe a few more ;)